<?xml version="1.0" encoding="UTF-8" standalone="no"?>
<svg viewBox="-0.496 -0.128 523.77856 656.70483" xml:space="preserve" xmlns="http://www.w3.org/2000/svg"><defs>
	
		
		
		
		
		
	</defs>
	
	
<g transform="translate(5.02272)"><path d="m77.0283,69.96917c97.21914-92.32495 250.37378-87.82611 342.08048,10.04843s87.238,252.06169-9.98114,344.38664-250.37378,87.82611-342.08048-10.04843c-90.86699-96.97835-87.43-249.47486 7.71264-342.20419" fill="#ffcb0f" fill-opacity=".99216" opacity=".99251" transform="translate(-.496,-.128)"></path><g transform="matrix(1.0586,-.32105,.30238,1.12396,-101.91299,8.02951)"><path d="m129.49438,237.23047 6.61694-1.40902c8.29909-24.82769 27.02448-33.59732 48.68988-16.25744-22.52292-23.69991-45.95477-7.05444-55.30682,17.66646z" fill-rule="evenodd" stroke="#000" stroke-width=".88151"></path><path d="m124.25571,201.40359-.22441.21843c-9.87891,10.66855-8.05888,25.03171-4.37271,37.94952l4.37317-1.31023c0,0-4.73576-12.54426-3.28469-21.60491 2.52411-15.7609 14.64958-23.05063 30.89735-20.39984-11.18303-2.65501-20.98146-.78903-27.38872,5.14701z" fill-rule="evenodd" stroke="#000" stroke-width=".88151"></path><path d="m571.42856,326.64789c0,75.7419-61.40095,137.14285-137.14285,137.14285s-137.14286-61.40095-137.14286-137.14285 61.40095-137.14285 137.14286-137.14285 137.14285,61.40094 137.14285,137.14285z" fill="#100b00" fill-rule="evenodd" stroke="#000" stroke-linecap="round" stroke-linejoin="round" stroke-width="2.68605" transform="matrix(-.62847,.18929,.18929,.62847,361.77335,40.44318)"></path><path d="m571.42856,326.64789c0,75.7419-61.40095,137.14285-137.14285,137.14285s-137.14286-61.40095-137.14286-137.14285 61.40095-137.14285 137.14286-137.14285 137.14285,61.40094 137.14285,137.14285z" fill="none" stroke="#000" stroke-linecap="round" stroke-linejoin="round" stroke-width="2.68605" transform="matrix(-.62847,.18929,.18929,.62847,360.87558,40.71358)"></path><path d="m39.47345,332.37138c6.6132-1.20917 13.47824-2.8599 20.46205-4.96335l.41244-.12422c-1.10401,4.79869-1.04057,9.56062.32776,14.10369 .78944,2.62107 1.99029,5.0423 3.54427,7.28686-11.58759-1.86393-20.86925-7.63667-24.74652-16.30298z" fill-rule="evenodd" stroke="#000" stroke-linecap="round" stroke-linejoin="round" stroke-width="1.76302"></path><path d="m109.27484,259.77704 4.80591,1.66614c-17.33752,10.96957-29.1515,29.33042-36.13043,50.71614-1.66864-.31235-3.35432-.58839-5.02836-.78689 6.58736-20.14487 16.40223-39.96589 36.35288-51.59539z" fill="#ffcb0f" fill-rule="evenodd"></path><path d="m-181.82746,24.47791c0,1.67368-.90452,3.03046-2.0203,3.03046s-2.02031-1.35678-2.02031-3.03046 .90452-3.03046 2.02031-3.03046 2.0203,1.35678 2.0203,3.03046z" fill-rule="evenodd" stroke="#000" stroke-linecap="round" stroke-linejoin="round" stroke-width="3.4471" transform="matrix(-.51977,.15655,.13897,.4614,98.33061,282.75525)"></path><path d="m210.49798,271.20292c-4.84817,5.04721-18.05015,6.11766-20.59654,1.4249" fill="none" stroke="#000" stroke-width="1.76302"></path><path d="m77.15339,270.59917-3.95183,5.21379c-21.49288-18.53523-46.31841-2.68967-48.79463.5558 18.99952-19.06394 33.64148-18.11302 52.74646-5.76959z" fill-rule="evenodd" stroke="#000" stroke-width=".88151"></path><path d="m93.53748,254.30517-6.13281,5.55842c-17.34196-26.92885-51.67814-16.77416-56.25364-13.85188 22.27769-9.21708 43.68468-11.39571 62.38645,8.29346z" fill-rule="evenodd" stroke="#000" stroke-width=".88151"></path><path d="m112.10706,242.7921-10.63088,5.62932c-9.41657-40.42729-60.46294-41.6231-67.98425-39.6482 34.1033-3.29795 63.7629,2.21065 78.61513,34.01888z" fill-rule="evenodd" stroke="#000" stroke-width=".88151"></path><path d="m58.86191,317.37809c-5.16752-9.59076-14.82962-8.48411-25.55073,1.68008 12.92228-13.75679 19.85778-13.90754 26.22398-5.09867-.1459.57731-.43885,2.58398-.67325,3.41859z" fill-rule="evenodd"></path><path d="m161.88683,360.41777 .76455-.22183c12.31655-3.60713 25.07664-6.19397 37.50207-7.41385 14.75252-1.44835 27.19394-.7789 36.67686,1.59523-.34247.62418.17365,6.08579-8.96394,20.52495-6.20282-1.71085-12.67222-9.32574-36.38104-6.99809s-62.19677,3.39081-85.0652,18.63122c14.27867-10.45279 34.16543-19.79759 55.4667-26.11763z" fill="#ffcb0f" fill-rule="evenodd" stroke="#ffcb0f" stroke-linecap="round" stroke-linejoin="round" stroke-width="1.76302"></path><path d="m571.42856,326.64789c0,75.7419-61.40095,137.14285-137.14285,137.14285s-137.14286-61.40095-137.14286-137.14285 61.40095-137.14285 137.14286-137.14285 137.14285,61.40094 137.14285,137.14285z" fill="#0f0f0f" fill-rule="evenodd" stroke="#ffcb0f" stroke-linecap="round" stroke-linejoin="round" stroke-width="18.45165" transform="matrix(-.21318,.06421,.07391,.2454,296.89105,193.18584)"></path><path d="m215.61799,283.94447c1.86925-.46665 4.05371.71006 6.20942,3.04902-4.3134,3.43967-6.00074,10.80151-3.75606,18.25425 2.21815,7.36463 7.58996,12.55382 13.01992,13.14345-.55674,3.00012-1.76626,5.0449-3.5852,5.59274-4.38048,1.31936-10.63236-6.56767-13.95707-17.60629s-2.46861-21.06649 1.91188-22.38584l.15711-.0473z" fill="#ffcb0f" fill-rule="evenodd"></path><path d="m233.81692,278.12031c1.86925-.46666 4.05371.71005 6.20943,3.04901-4.31341,3.43968-6.00075,10.80151-3.75607,18.25425 2.21815,7.36464 7.58996,12.55382 13.01992,13.14346-.55674,3.00011-1.76626,5.04489-3.5852,5.59273-4.38048,1.31936-10.63236-6.56767-13.95707-17.60628s-2.46861-21.06649 1.91188-22.38585l.15711-.0473z" fill="#ffcb0f" fill-rule="evenodd"></path><path d="m491.42857,250.21933c0,8.28427-5.11674,15-11.42857,15s-11.42857-6.71573-11.42857-15 5.11674-15 11.42857-15 11.42857,6.71573 11.42857,15z" fill="#ffcb0f" fill-opacity=".98431" fill-rule="evenodd" transform="matrix(-.62847,.18929,.18929,.62847,431.9434,24.20514)"></path><path d="m491.42857,250.21933c0,8.28427-5.11674,15-11.42857,15s-11.42857-6.71573-11.42857-15 5.11674-15 11.42857-15 11.42857,6.71573 11.42857,15z" fill="none" stroke="#000" stroke-linecap="round" stroke-linejoin="round" stroke-width="2.68605" transform="matrix(-.62847,.18929,.18929,.62847,431.9434,24.20514)"></path><path d="m491.42857,250.21933c0,8.28427-5.11674,15-11.42857,15s-11.42857-6.71573-11.42857-15 5.11674-15 11.42857-15 11.42857,6.71573 11.42857,15z" fill="#ff3a00" fill-rule="evenodd" transform="matrix(-.62847,.18929,.18929,.62847,448.32664,17.31225)"></path><path d="m491.42857,250.21933c0,8.28427-5.11674,15-11.42857,15s-11.42857-6.71573-11.42857-15 5.11674-15 11.42857-15 11.42857,6.71573 11.42857,15z" fill="#ffcb0f" fill-rule="evenodd" stroke="#000" stroke-linecap="round" stroke-linejoin="round" stroke-width="2.68605" transform="matrix(-.62847,.18929,.18929,.62847,448.32664,17.31225)"></path><path d="m198.18562,332.75652c2.99576,7.51461 3.8866,16.44339 2.1305,26.03059-.63798,3.483-1.59997,6.88293-2.83539,10.16005 4.16066.0796 7.8587.15387 11.14533.22086 1.7465-11.83943-.57048-22.59012-5.87847-30.75701-1.33669-2.05666-2.86305-3.94943-4.56197-5.65449z" fill="#ffcb0f" fill-rule="evenodd" stroke="#000" stroke-width="1.76302"></path><path d="m160.76749,342.09474c3.47883,5.60557 4.98968,12.68527 3.94617,20.71317-.37911,2.91651-1.08254,5.81676-2.06342,8.66065l10.96864-1.57225c.87381-9.84751-2.16823-18.17635-7.96577-23.9461-1.45996-1.453-3.09468-2.74368-4.88562-3.85547z" fill="#ffcb0f" fill-rule="evenodd" stroke="#000" stroke-width="1.76302"></path></g><path d="m370.0689,170.32176c-13.40113-5.80993-39.46325-16.7049-54.45453-30.20928-8.27741-7.45643-8.84286-17.95647-13.21251-19.54423-12.53885-4.55606-22.26619,5.59609-18.81673,12.91796-23.15919,5.71455-7.4313,23.06889 7.3573,19.87633 4.94233-1.06696 3.17071-1.9001 7.80243-.14804 13.17563,4.98407 57.21081,23.29387 61.84753,25.73814 4.91346,2.59017 6.96995,10.46409 8.72922,16.39198 2.22186,7.48665 11.65552,8.46417 16.60123,6.05162 4.47987-2.18531 4.57509-7.05833 3.38471-13.65254 12.56511,7.17161 17.43423-9.93965 8.23106-13.38245-8.51248-3.18441-18.61982-.20272-27.46971-4.03949z" stroke="#000" stroke-linecap="round" stroke-linejoin="round" stroke-width="5"></path><path d="m201.20548,447.30458c26.97052-15.09752 58.39726-28.20105 91.3128-34.92097 7.06368-12.28137 21.87053-23.19983 31.94254-34.85091 16.3718-18.9385 18.83714-25.74974 38.80081-59.94393 3.92794-6.72786-1.02694-11.36321 1.08343-14.93461-9.21818-12.81813-21.22134-27.15723-8.46816-40.0838-1.72419,5.98857-2.76362,7.95817-1.89212,9.21645 .96242.35978 2.69459,1.0372 4.01223,3.42413 .84037,4.9594 5.05933,9.05872 6.04859,13.25131 .33363,1.41393 5.84637,3.13934 9.54404,2.22834 1.93882-.47767 2.91214-1.95791 4.12418-5.11206 .30972-3.02215.98114-6.60213 3.1854-10.22699-.29392-3.15386-1.81292-7.59713-.71341-12.64565 .38609-1.7728-1.75159-6.15885-2.68797-7.28639-.33175-.39947-.50715-1.21175.67706-2.2832 .78114-1.13442-.23823-5.44494-5.03169-11.4984-.86946-1.098 4.43118,2.97497 8.10249,9.75247 2.03081-.0666 5.63358,4.9507 7.0265,7.2161 5.09155,11.27189-.14544,24.31956-.14544,24.31956 2.6178-3.37453 5.73725-9.57283 7.86988-10.00262 .64888-3.47044 1.982-9.00839 3.88601-12.70549 0,0-2.16555-6.90734-2.18986-11.64319-.007-1.44289-.27625-3.69603 1.26878-5.48351-.63589-4.43852-6.34226-8.71834-7.18248-12.243 6.96032,4.63564 9.94081,10.51795 10.63187,12.53188 2.50127,2.8336 4.42325,5.53637 5.76849,11.63861 3.14276,2.35903.5535,16.54563.5535,16.54563s3.99763-2.19574 5.32788-3.93044c1.90409-2.48303 2.33806-4.37078 4.92651-7.43524-1.16138-4.47462.66289-14.15859.30931-15.42293-.37424-1.33827.8887-2.24347.68266-2.82199-1.44525-4.05792-1.02848-5.39012-6.01635-11.96503 0,0 10.10019,8.55248 10.85872,12.00126 1.36219,6.19349 5.08548,15.34925 1.87533,21.00176-3.29769,5.80665-3.58078,12.95649-8.1742,16.01332-6.94748,4.62343-16.56597,9.80873-24.60583,17.12986-2.71761,3.715-10.88846,18.23283-12.09867,21.61619-12.09863,33.8238-28.19924,57.41054-43.57558,87.13719-18.2671,20.45362-39.13424,37.0072-58.73025,55.46746l-78.307-13.05117z" stroke="#000" transform="translate(-.496,-.128)"></path><path d="m337.87333-39.80427c-141.408,0-256.8125,115.3325-256.8125,256.8125 0,141.408 115.4045,256.84375 256.8125,256.84375 141.48,0 256.84375-115.43575 256.84375-256.84375 0-141.48-115.36375-256.8125-256.84375-256.8125zm-.0625,59.25c108.864,0 197.65625,88.43225 197.65625,197.65625 0,45.504-16.003,89.701-44.875,125.125l-277.90625-277.90625v-.3125c35.424-28.584 79.621-44.5625 125.125-44.5625zm-153,72.5v.3125l277.9375,277.90625c-128.952,105.48-322.4375,13.608-322.4375-153 0-45.648 15.628-89.86675 44.5-125.21875z" fill="#ed171f" transform="translate(-81.55683,39.67627)"></path><path d="m513.25984,535.99695v101.62982c0,7.72821-11.31166,13.95004-25.36246,13.95004h-463.05364c-14.05081,0-25.36246-6.22183-25.36246-13.95004v-101.62982c0-7.72821 11.31166-13.94978 25.36246-13.94978h463.05364c14.0508,0 25.36246,6.22157 25.36246,13.94978z" fill="#ffcb0f" fill-opacity=".99216" stroke="#000" stroke-width="10"></path><g transform="matrix(3.82189,0,0,2.57942,-6612.202,4996.6763)"><g font-family="Liberation Mono" font-size="40"><path d="m1747.4486-1721.1243c0,.9844-.1172,1.8516-.3516,2.6016s-.5742,1.3799-1.0195,1.8896c-.4453.504-.9932.8848-1.6435,1.1426-.6446.2578-1.377.3867-2.1973.3867h-3.7002v-11.8564h3.1729c.9257,0 1.746.1143 2.4609.3428s1.3154.5801 1.8017,1.0547 .8526,1.081 1.0987,1.8193c.2519.7324.3779,1.6055.3779,2.6191m-2.6103,0c-.0001-.6855-.064-1.2685-.1934-1.749-.1289-.4863-.3252-.8818-.5889-1.1865-.2578-.3106-.5859-.5361-.9843-.6768-.3985-.1464-.8672-.2197-1.4063-.2197h-.5361v7.8486h.8965c.9492,0 1.6552-.3339 2.1181-1.0019s.6943-1.6787.6944-3.0147"></path><path d="m1758.3119-1721.0715c0,2.0215-.4102,3.5508-1.2305,4.5879s-1.998,1.5556-3.5332,1.5556-2.7158-.5185-3.542-1.5556c-.8203-1.0371-1.2304-2.5664-1.2304-4.5879s.4101-3.5391 1.2304-4.5528c.8262-1.0136 2.0069-1.5205 3.542-1.5205s2.7129.5069 3.5332,1.5205 1.2305,2.5313 1.2305,4.5528m-2.6279,0c0-1.3653-.1788-2.3789-.5362-3.041s-.8906-.9932-1.5996-.9932-1.2451.3369-1.6084,1.0107-.5361,1.6758-.5361,3.0235 .1787,2.3701.5361,3.0673c.3633.6915.8994,1.0372 1.6084,1.0372s1.2422-.3457 1.5996-1.0372c.3574-.6972.5362-1.7197.5362-3.0673"></path><path d="m1776.3031-1715.1038-3.375-8.8769c.047.4219.088.8262.123,1.2129 .018.164.032.334.044.5097 .018.1758.032.3487.044.5186 .012.1641.021.3223.026.4746 .01.1465.01.2783.01.3955v5.7656h-2.2588v-11.8564h2.9619l3.4541,9.1143c-.047-.3926-.088-.7823-.123-1.169-.029-.334-.059-.6826-.088-1.0459-.024-.3691-.035-.7002-.035-.9932v-5.9062h2.2588v11.8564h-3.041"></path><path d="m1790.6908-1721.0715c0,2.0215-.4102,3.5508-1.2305,4.5879s-1.998,1.5556-3.5332,1.5556-2.7158-.5185-3.542-1.5556c-.8203-1.0371-1.2304-2.5664-1.2304-4.5879s.4101-3.5391 1.2304-4.5528c.8262-1.0136 2.0069-1.5205 3.542-1.5205s2.7129.5069 3.5332,1.5205 1.2305,2.5313 1.2305,4.5528m-2.6279,0c0-1.3653-.1788-2.3789-.5362-3.041s-.8906-.9932-1.5996-.9932-1.2451.3369-1.6084,1.0107-.5361,1.6758-.5361,3.0235 .1787,2.3701.5361,3.0673c.3633.6915.8994,1.0372 1.6084,1.0372s1.2422-.3457 1.5996-1.0372c.3574-.6972.5362-1.7197.5362-3.0673"></path><path d="m1798.0121-1724.9563v9.8525h-2.5928v-9.8525h-3.5683v-2.0039h9.7294v2.0039h-3.5683"></path><path d="m1816.9613-1724.9563v3.375h5.458v2.0039h-5.458v4.4736h-2.5928v-11.8564h8.253v2.0039h-5.6602"></path><path d="m1824.8978-1715.1038v-11.8564h8.5078v2.0039h-5.915v2.8477h5.3789v2.0039h-5.3789v2.997h6.2754v2.0039h-8.8682"></path><path d="m1835.6908-1715.1038v-11.8564h8.5078v2.0039h-5.915v2.8477h5.3789v2.0039h-5.3789v2.997h6.2754v2.0039h-8.8682"></path><path d="m1855.3783-1721.1243c0,.9844-.1172,1.8516-.3516,2.6016s-.5742,1.3799-1.0195,1.8896c-.4453.504-.9932.8848-1.6436,1.1426-.6445.2578-1.3769.3867-2.1972.3867h-3.7002v-11.8564h3.1728c.9258,0 1.7461.1143 2.461.3428s1.3154.5801 1.8017,1.0547 .8526,1.081 1.0987,1.8193c.2519.7324.3779,1.6055.3779,2.6191m-2.6104,0c0-.6855-.064-1.2685-.1933-1.749-.1289-.4863-.3252-.8818-.5889-1.1865-.2578-.3106-.5859-.5361-.9844-.6768-.3984-.1464-.8671-.2197-1.4062-.2197h-.5361v7.8486h.8964c.9493,0 1.6553-.3339 2.1182-1.0019s.6943-1.6787.6943-3.0147"></path></g><g font-family="Liberation Mono" font-size="40"><path d="m1750.0472-1704.9563v9.8525h-2.5927v-9.8525h-3.5684v-2.0039h9.7295v2.0039h-3.5684"></path><path d="m1761.139-1695.1038v-5.0449h-3.1904v5.0449h-2.5928v-11.8564h2.5928v4.667h3.1904v-4.667h2.5928v11.8564h-2.5928"></path><path d="m1766.14-1695.1038v-11.8564h8.5078v2.0039h-5.915v2.8477h5.3789v2.0039h-5.3789v2.997h6.2754v2.0039h-8.8682"></path><path d="m1793.2191-1704.9563v9.8525h-2.5928v-9.8525h-3.5683v-2.0039h9.7295v2.0039h-3.5684"></path><path d="m1805.181-1695.1038-2.5488-4.5263h-1.5205v4.5263h-2.5928v-11.8564h4.3418c1.5469,0 2.7041.3018 3.4717.9053s1.1514,1.4736 1.1514,2.6103c0,.4336-.062.8262-.1846,1.1778s-.293.6621-.5098.9316c-.2168.2637-.4746.4922-.7734.6855s-.627.334-.9844.4395l3.0674,5.1064h-2.918m-.3076-8.2353c0-.2988-.053-.5508-.1582-.7559-.1-.205-.2461-.3691-.4394-.4922-.1934-.1289-.4336-.2197-.7207-.2724-.2813-.059-.6036-.088-.9668-.088h-1.4766v3.3047h1.5469c.7734,0 1.3359-.1436 1.6875-.4307s.5273-.7148.5273-1.2656"></path><path d="m1818.2767-1701.0715c0,2.0215-.4101,3.5508-1.2304,4.5879s-1.9981,1.5556-3.5332,1.5556-2.7159-.5185-3.542-1.5556c-.8203-1.0371-1.2305-2.5664-1.2305-4.5879s.4102-3.5391 1.2305-4.5528c.8261-1.0136 2.0068-1.5205 3.542-1.5205s2.7128.5069 3.5332,1.5205 1.2304,2.5313 1.2304,4.5528m-2.6279,0c0-1.3653-.1787-2.3789-.5361-3.041s-.8907-.9932-1.5996-.9932-1.2452.3369-1.6084,1.0107-.5362,1.6758-.5362,3.0235 .1787,2.3701.5362,3.0673c.3632.6915.8994,1.0372 1.6084,1.0372s1.2421-.3457 1.5996-1.0372c.3574-.6972.5361-1.7197.5361-3.0673"></path><path d="m1820.7552-1695.1038v-11.8564h2.5928v9.8525h5.4141v2.0039h-8.0069"></path><path d="m1831.5482-1695.1038v-11.8564h2.5928v9.8525h5.4141v2.0039h-8.0069"></path><path d="m1850.726-1698.5403c-.0001.5156-.1.9961-.2989,1.4414-.1992.4395-.501.8203-.9052,1.1426s-.9112.5742-1.5206.7559-1.3242.2724-2.1445.2724c-1.3769,0-2.499-.29-3.3662-.8701s-1.4238-1.4238-1.6699-2.5312l2.5049-.3252c.1347.5507.416.9873.8437,1.3095s1.0137.4746 1.7578.4746c.3516,0 .6651-.026.9405-.079s.5214-.1377.7207-.2548 .3515-.2725.457-.4659c.1054-.1992.1582-.4394.1582-.7207 0-.3164-.094-.5742-.2813-.7734-.1816-.2051-.416-.3721-.7031-.501-.2812-.1347-.5947-.2431-.9404-.3252l-1.002-.2637-.8701-.246c-.2988-.094-.5918-.2051-.8789-.334s-.5596-.2783-.8174-.4483c-.2578-.1757-.4834-.3838-.6767-.624s-.3487-.5156-.4659-.8262c-.1113-.3164-.1669-.6767-.1669-1.081 0-.5742.123-1.0693.3691-1.4854s.5859-.7675 1.002-1.0371c.416-.2754.8935-.4775 1.4326-.6064s1.1015-.2022 1.6875-.2022c1.3125,0 2.3379.2608 3.0761.7823s1.2159,1.3183 1.4327,2.4082l-2.5137.2548c-.1289-.5332-.3604-.9345-.6944-1.2041s-.7851-.4043-1.3535-.4043c-.3691,0-.6767.038-.9228.1143-.2403.07-.4365.1699-.5889.2988-.1465.1231-.2519.2666-.3164.4307s-.088.3252-.088.501c0,.2812.073.5156.2197.7031 .1465.1816.337.334.5713.457 .2403.1231.5127.2285.8174.3164l.9404.2461c.3106.076.6299.1641.9581.2637 .3281.094.6503.208.9668.3428s.6152.2842.8964.4658 .5274.3867.7383.6328 .3779.5332.501.8613c.1289.3282.1933.7061.1934,1.1338"></path></g></g></g></svg>
