<?xml version="1.0" encoding="utf-8"?>
<!-- Generator: Adobe Illustrator 19.2.0, SVG Export Plug-In . SVG Version: 6.00 Build 0)  -->
<svg version="1.1" id="Capa_1" xmlns="http://www.w3.org/2000/svg" xmlns:xlink="http://www.w3.org/1999/xlink" x="0px" y="0px"
	 viewBox="0 0 132 131.6" style="enable-background:new 0 0 132 131.6;" xml:space="preserve">
<style type="text/css">
	.st0{fill:#FFCC00;}
</style>
<title>yellow</title>
<path class="st0" d="M124.5,43.2l-34.9-3.3c-2.2-0.2-4.2-1.6-5-3.7L72.1,5.9c-1.3-3.1-4.8-4.5-7.8-3.3c-1.5,0.6-2.7,1.8-3.3,3.3
	L48.6,36.2c-0.8,2.1-2.8,3.5-5,3.7L8.7,43.2c-3.3,0.3-5.7,3.2-5.4,6.5c0.1,1.5,0.9,3,2,4l26.3,23.1c1.7,1.5,2.4,3.7,1.9,5.9
	l-7.9,32.4c-0.8,3.2,1.2,6.5,4.4,7.3c1.5,0.4,3.2,0.1,4.5-0.7l29.1-17.1c1.9-1.1,4.2-1.1,6.1,0l29.1,17.1c2.8,1.7,6.5,0.8,8.2-2.1
	c0.8-1.4,1.1-3,0.7-4.5l-7.8-32.4c-0.5-2.2,0.2-4.4,1.9-5.9l26.3-23.1c2.4-2.3,2.5-6.2,0.2-8.6C127.3,44,126,43.4,124.5,43.2z"/>
</svg>
